<svg width="102" height="136" viewBox="0 0 102 136" fill="none" xmlns="http://www.w3.org/2000/svg">
<path opacity="0.2" d="M3 128.789C4.6568 128.789 5.9999 130.329 6 132.228C6 134.128 4.65685 135.667 3 135.667C1.34315 135.667 0 134.128 0 132.228C9.61416e-05 130.329 1.3432 128.789 3 128.789ZM19 128.789C20.6568 128.789 21.9999 130.329 22 132.228C22 134.128 20.6569 135.667 19 135.667C17.3431 135.667 16 134.128 16 132.228C16.0001 130.329 17.3432 128.789 19 128.789ZM35 128.789C36.6568 128.789 37.9999 130.329 38 132.228C38 134.128 36.6569 135.667 35 135.667C33.3431 135.667 32 134.128 32 132.228C32.0001 130.329 33.3432 128.789 35 128.789ZM51 128.789C52.6568 128.789 53.9999 130.329 54 132.228C54 134.128 52.6569 135.667 51 135.667C49.3431 135.667 48 134.128 48 132.228C48.0001 130.329 49.3432 128.789 51 128.789ZM67 128.789C68.6568 128.789 69.9999 130.329 70 132.228C70 134.128 68.6569 135.667 67 135.667C65.3431 135.667 64 134.128 64 132.228C64.0001 130.329 65.3432 128.789 67 128.789ZM83 128.789C84.6568 128.789 85.9999 130.329 86 132.228C86 134.128 84.6569 135.667 83 135.667C81.3431 135.667 80 134.128 80 132.228C80.0001 130.329 81.3432 128.789 83 128.789ZM99 128.789C100.657 128.789 102 130.329 102 132.228C102 134.128 100.657 135.667 99 135.667C97.3431 135.667 96 134.128 96 132.228C96.0001 130.329 97.3432 128.789 99 128.789ZM3 110.445C4.65685 110.445 6 111.985 6 113.884C5.99989 115.784 4.65679 117.324 3 117.324C1.34321 117.324 0.00010884 115.784 0 113.884C0 111.985 1.34315 110.445 3 110.445ZM19 110.445C20.6569 110.445 22 111.985 22 113.884C21.9999 115.784 20.6568 117.324 19 117.324C17.3432 117.324 16.0001 115.784 16 113.884C16 111.985 17.3431 110.445 19 110.445ZM35 110.445C36.6569 110.445 38 111.985 38 113.884C37.9999 115.784 36.6568 117.324 35 117.324C33.3432 117.324 32.0001 115.784 32 113.884C32 111.985 33.3431 110.445 35 110.445ZM51 110.445C52.6569 110.445 54 111.985 54 113.884C53.9999 115.784 52.6568 117.324 51 117.324C49.3432 117.324 48.0001 115.784 48 113.884C48 111.985 49.3431 110.445 51 110.445ZM67 110.445C68.6569 110.445 70 111.985 70 113.884C69.9999 115.784 68.6568 117.324 67 117.324C65.3432 117.324 64.0001 115.784 64 113.884C64 111.985 65.3431 110.445 67 110.445ZM83 110.445C84.6569 110.445 86 111.985 86 113.884C85.9999 115.784 84.6568 117.324 83 117.324C81.3432 117.324 80.0001 115.784 80 113.884C80 111.985 81.3431 110.445 83 110.445ZM99 110.445C100.657 110.445 102 111.985 102 113.884C102 115.784 100.657 117.324 99 117.324C97.3432 117.324 96.0001 115.784 96 113.884C96 111.985 97.3431 110.445 99 110.445ZM3 92.1001C4.65676 92.1001 5.99985 93.6401 6 95.5396C6 97.4392 4.65685 98.979 3 98.979C1.34315 98.979 0 97.4392 0 95.5396C0.000146485 93.6401 1.34324 92.1001 3 92.1001ZM19 92.1001C20.6568 92.1001 21.9999 93.6401 22 95.5396C22 97.4392 20.6569 98.979 19 98.979C17.3431 98.979 16 97.4392 16 95.5396C16.0001 93.6401 17.3432 92.1001 19 92.1001ZM35 92.1001C36.6568 92.1001 37.9999 93.6401 38 95.5396C38 97.4392 36.6569 98.979 35 98.979C33.3431 98.979 32 97.4392 32 95.5396C32.0001 93.6401 33.3432 92.1001 35 92.1001ZM51 92.1001C52.6568 92.1001 53.9999 93.6401 54 95.5396C54 97.4392 52.6569 98.979 51 98.979C49.3431 98.979 48 97.4392 48 95.5396C48.0001 93.6401 49.3432 92.1001 51 92.1001ZM67 92.1001C68.6568 92.1001 69.9999 93.6401 70 95.5396C70 97.4392 68.6569 98.979 67 98.979C65.3431 98.979 64 97.4392 64 95.5396C64.0001 93.6401 65.3432 92.1001 67 92.1001ZM83 92.1001C84.6568 92.1001 85.9999 93.6401 86 95.5396C86 97.4392 84.6569 98.979 83 98.979C81.3431 98.979 80 97.4392 80 95.5396C80.0001 93.6401 81.3432 92.1001 83 92.1001ZM99 92.1001C100.657 92.1001 102 93.6401 102 95.5396C102 97.4392 100.657 98.979 99 98.979C97.3431 98.979 96 97.4392 96 95.5396C96.0001 93.6401 97.3432 92.1001 99 92.1001ZM3 73.7563C4.65685 73.7563 6 75.2962 6 77.1958C5.99994 79.0953 4.65682 80.6353 3 80.6353C1.34318 80.6353 5.8495e-05 79.0953 0 77.1958C0 75.2962 1.34315 73.7563 3 73.7563ZM19 73.7563C20.6569 73.7563 22 75.2962 22 77.1958C21.9999 79.0953 20.6568 80.6353 19 80.6353C17.3432 80.6353 16.0001 79.0953 16 77.1958C16 75.2962 17.3431 73.7563 19 73.7563ZM35 73.7563C36.6569 73.7563 38 75.2962 38 77.1958C37.9999 79.0953 36.6568 80.6353 35 80.6353C33.3432 80.6353 32.0001 79.0953 32 77.1958C32 75.2962 33.3431 73.7563 35 73.7563ZM51 73.7563C52.6569 73.7563 54 75.2962 54 77.1958C53.9999 79.0953 52.6568 80.6353 51 80.6353C49.3432 80.6353 48.0001 79.0953 48 77.1958C48 75.2962 49.3431 73.7563 51 73.7563ZM67 73.7563C68.6569 73.7563 70 75.2962 70 77.1958C69.9999 79.0953 68.6568 80.6353 67 80.6353C65.3432 80.6353 64.0001 79.0953 64 77.1958C64 75.2962 65.3431 73.7563 67 73.7563ZM83 73.7563C84.6569 73.7563 86 75.2962 86 77.1958C85.9999 79.0953 84.6568 80.6353 83 80.6353C81.3432 80.6353 80.0001 79.0953 80 77.1958C80 75.2962 81.3431 73.7563 83 73.7563ZM99 73.7563C100.657 73.7563 102 75.2962 102 77.1958C102 79.0953 100.657 80.6353 99 80.6353C97.3432 80.6353 96.0001 79.0953 96 77.1958C96 75.2962 97.3431 73.7563 99 73.7563ZM3 55.4116C4.65673 55.4116 5.9998 56.9517 6 58.8511C6 60.7507 4.65685 62.2915 3 62.2915C1.34315 62.2915 0 60.7507 0 58.8511C0.000196826 56.9517 1.34327 55.4116 3 55.4116ZM19 55.4116C20.6567 55.4116 21.9998 56.9517 22 58.8511C22 60.7507 20.6569 62.2915 19 62.2915C17.3431 62.2915 16 60.7507 16 58.8511C16.0002 56.9517 17.3433 55.4116 19 55.4116ZM35 55.4116C36.6567 55.4116 37.9998 56.9517 38 58.8511C38 60.7507 36.6569 62.2915 35 62.2915C33.3431 62.2915 32 60.7507 32 58.8511C32.0002 56.9517 33.3433 55.4116 35 55.4116ZM51 55.4116C52.6567 55.4116 53.9998 56.9517 54 58.8511C54 60.7507 52.6569 62.2915 51 62.2915C49.3431 62.2915 48 60.7507 48 58.8511C48.0002 56.9517 49.3433 55.4116 51 55.4116ZM67 55.4116C68.6567 55.4116 69.9998 56.9517 70 58.8511C70 60.7507 68.6569 62.2915 67 62.2915C65.3431 62.2915 64 60.7507 64 58.8511C64.0002 56.9517 65.3433 55.4116 67 55.4116ZM83 55.4116C84.6567 55.4116 85.9998 56.9517 86 58.8511C86 60.7507 84.6569 62.2915 83 62.2915C81.3431 62.2915 80 60.7507 80 58.8511C80.0002 56.9517 81.3433 55.4116 83 55.4116ZM99 55.4116C100.657 55.4116 102 56.9517 102 58.8511C102 60.7507 100.657 62.2915 99 62.2915C97.3431 62.2915 96 60.7507 96 58.8511C96.0002 56.9517 97.3433 55.4116 99 55.4116ZM3 37.0679C4.65685 37.0679 6 38.6077 6 40.5073C5.99999 42.4069 4.65685 43.9468 3 43.9468C1.34315 43.9468 8.1479e-06 42.4069 0 40.5073C0 38.6077 1.34315 37.0679 3 37.0679ZM19 37.0679C20.6569 37.0679 22 38.6077 22 40.5073C22 42.4069 20.6568 43.9468 19 43.9468C17.3432 43.9468 16 42.4069 16 40.5073C16 38.6077 17.3431 37.0679 19 37.0679ZM35 37.0679C36.6569 37.0679 38 38.6077 38 40.5073C38 42.4069 36.6568 43.9468 35 43.9468C33.3432 43.9468 32 42.4069 32 40.5073C32 38.6077 33.3431 37.0679 35 37.0679ZM51 37.0679C52.6569 37.0679 54 38.6077 54 40.5073C54 42.4069 52.6568 43.9468 51 43.9468C49.3432 43.9468 48 42.4069 48 40.5073C48 38.6077 49.3431 37.0679 51 37.0679ZM67 37.0679C68.6569 37.0679 70 38.6077 70 40.5073C70 42.4069 68.6569 43.9468 67 43.9468C65.3431 43.9468 64 42.4069 64 40.5073C64 38.6077 65.3431 37.0679 67 37.0679ZM83 37.0679C84.6569 37.0679 86 38.6077 86 40.5073C86 42.4069 84.6569 43.9468 83 43.9468C81.3431 43.9468 80 42.4069 80 40.5073C80 38.6077 81.3431 37.0679 83 37.0679ZM99 37.0679C100.657 37.0679 102 38.6077 102 40.5073C102 42.4069 100.657 43.9468 99 43.9468C97.3431 43.9468 96 42.4069 96 40.5073C96 38.6077 97.3431 37.0679 99 37.0679ZM3 18.7231C4.65685 18.7231 6 20.264 6 22.1636C5.99979 24.063 4.65672 25.603 3 25.603C1.34328 25.603 0.000214017 24.063 0 22.1636C0 20.264 1.34315 18.7231 3 18.7231ZM19 18.7231C20.6569 18.7231 22 20.264 22 22.1636C21.9998 24.063 20.6567 25.603 19 25.603C17.3433 25.603 16.0002 24.063 16 22.1636C16 20.264 17.3431 18.7231 19 18.7231ZM35 18.7231C36.6569 18.7231 38 20.264 38 22.1636C37.9998 24.063 36.6567 25.603 35 25.603C33.3433 25.603 32.0002 24.063 32 22.1636C32 20.264 33.3431 18.7231 35 18.7231ZM51 18.7231C52.6569 18.7231 54 20.264 54 22.1636C53.9998 24.063 52.6567 25.603 51 25.603C49.3433 25.603 48.0002 24.063 48 22.1636C48 20.264 49.3431 18.7231 51 18.7231ZM67 18.7231C68.6569 18.7231 70 20.264 70 22.1636C69.9998 24.063 68.6567 25.603 67 25.603C65.3433 25.603 64.0002 24.063 64 22.1636C64 20.264 65.3431 18.7231 67 18.7231ZM83 18.7231C84.6569 18.7231 86 20.264 86 22.1636C85.9998 24.063 84.6567 25.603 83 25.603C81.3433 25.603 80.0002 24.063 80 22.1636C80 20.264 81.3431 18.7231 83 18.7231ZM99 18.7231C100.657 18.7231 102 20.264 102 22.1636C102 24.063 100.657 25.603 99 25.603C97.3433 25.603 96.0002 24.063 96 22.1636C96 20.264 97.3431 18.7231 99 18.7231ZM3 0.379395C4.65683 0.379395 5.99996 1.91928 6 3.81885C6 5.71845 4.65685 7.2583 3 7.2583C1.34315 7.2583 0 5.71845 0 3.81885C3.8604e-05 1.91928 1.34317 0.379395 3 0.379395ZM19 0.379395C20.6568 0.379395 22 1.91928 22 3.81885C22 5.71845 20.6569 7.2583 19 7.2583C17.3431 7.2583 16 5.71845 16 3.81885C16 1.91928 17.3432 0.379395 19 0.379395ZM35 0.379395C36.6568 0.379395 38 1.91928 38 3.81885C38 5.71845 36.6569 7.2583 35 7.2583C33.3431 7.2583 32 5.71845 32 3.81885C32 1.91928 33.3432 0.379395 35 0.379395ZM51 0.379395C52.6568 0.379395 54 1.91928 54 3.81885C54 5.71845 52.6569 7.2583 51 7.2583C49.3431 7.2583 48 5.71845 48 3.81885C48 1.91928 49.3432 0.379395 51 0.379395ZM67 0.379395C68.6568 0.379395 70 1.91928 70 3.81885C70 5.71845 68.6569 7.2583 67 7.2583C65.3431 7.2583 64 5.71845 64 3.81885C64 1.91928 65.3432 0.379395 67 0.379395ZM83 0.379395C84.6568 0.379395 86 1.91928 86 3.81885C86 5.71845 84.6569 7.2583 83 7.2583C81.3431 7.2583 80 5.71845 80 3.81885C80 1.91928 81.3432 0.379395 83 0.379395ZM99 0.379395C100.657 0.379395 102 1.91928 102 3.81885C102 5.71845 100.657 7.2583 99 7.2583C97.3431 7.2583 96 5.71845 96 3.81885C96 1.91928 97.3432 0.379395 99 0.379395Z" fill="#FF8C32"/>
</svg>
